# xmcd
#
# Track frame offsets:
# 150
# 17648
# 34235
# 56423
# 79974
# 107387
# 137669
# 161775
# 186816
# 210782
# 234224
# 254799
#
# Disc length: 3636 seconds
#
#
# Revision: 8
# Processed by: cddbd v1.5.2PL0 Copyright (c) Steve Scherf et al.
# Submitted via: FreeRIP 2.951 
#
DISCID=970e320c
DTITLE=Yaskim - Calming Moods
DYEAR=1997
DGENRE=Ambient
TTITLE0=Meadow Dance
TTITLE1=Aurora
TTITLE2=Nightwalk
TTITLE3=Stargazer
TTITLE4=Distant Origins
TTITLE5=Andes Calling
TTITLE6=Adagio
TTITLE7=Drifting
TTITLE8=New Dawn
TTITLE9=Rising Star
TTITLE10=Windsong
TTITLE11=Daydreams
EXTD=
EXTT0=
EXTT1=
EXTT2=
EXTT3=
EXTT4=
EXTT5=
EXTT6=
EXTT7=
EXTT8=
EXTT9=
EXTT10=
EXTT11=
PLAYORDER=
